Metropolis-RegularItalic.ufo
<glyph name="numbersign" format="2">
	<advance width="691"/>
	<unicode hex="0023"/>
	<outline>
		<contour>
			<point x="378" y="687" type="line"/>
			<point x="62" y="0" type="line"/>
			<point x="129" y="0" type="line"/>
			<point x="445" y="687" type="line"/>
		</contour>
		<contour>
			<point x="594" y="687" type="line"/>
			<point x="278" y="0" type="line"/>
			<point x="345" y="0" type="line"/>
			<point x="661" y="687" type="line"/>
		</contour>
		<contour>
			<point x="59" y="240" type="line"/>
			<point x="31" y="179" type="line"/>
			<point x="545" y="179" type="line"/>
			<point x="573" y="240" type="line"/>
		</contour>
		<contour>
			<point x="180" y="507" type="line"/>
			<point x="153" y="446" type="line"/>
			<point x="668" y="446" type="line"/>
			<point x="696" y="507" type="line"/>
		</contour>
	</outline>
</glyph>
<glyph name="dollar" format="2">
	<advance width="651"/>
	<unicode hex="0024"/>
	<anchor x="418" y="687" name="top"/>
	<anchor x="279" y="0" name="bottom"/>
	<outline>
		<contour>
			<point x="399" y="759" type="line"/>
			<point x="226" y="-74" type="line"/>
			<point x="304" y="-74" type="line"/>
			<point x="477" y="759" type="line"/>
		</contour>
		<contour>
			<point x="287" y="-11" type="curve"/>
			<point x="287" y="-11" type="line"/>
			<point x="452" y="-11"/>
			<point x="568" y="86"/>
			<point x="568" y="222" type="curve"/>
			<point x="568" y="305"/>
			<point x="513" y="352"/>
			<point x="375" y="385" type="curve"/>
			<point x="263" y="414"/>
			<point x="218" y="442"/>
			<point x="218" y="486" type="curve"/>
			<point x="218" y="570"/>
			<point x="293" y="629"/>
			<point x="399" y="629" type="curve"/>
			<point x="460" y="629"/>
			<point x="533" y="593"/>
			<point x="574" y="543" type="curve"/>
			<point x="631" y="600" type="line"/>
			<point x="578" y="659"/>
			<point x="486" y="700"/>
			<point x="407" y="700" type="curve"/>
			<point x="249" y="700"/>
			<point x="138" y="603"/>
			<point x="138" y="467" type="curve"/>
			<point x="138" y="388"/>
			<point x="193" y="344"/>
			<point x="332" y="311" type="curve"/>
			<point x="443" y="283"/>
			<point x="487" y="253"/>
			<point x="487" y="207" type="curve"/>
			<point x="487" y="121"/>
			<point x="407" y="60"/>
			<point x="293" y="60" type="curve"/>
			<point x="220" y="60"/>
			<point x="137" y="100"/>
			<point x="92" y="157" type="curve"/>
			<point x="34" y="100" type="line"/>
			<point x="88" y="35"/>
			<point x="192" y="-11"/>
		</contour>
	</outline>
</glyph>
<glyph name="ampersand" format="2">
	<advance width="704"/>
	<unicode hex="0026"/>
	<outline>
		<contour>
			<point x="226" y="-12" type="curve"/>
			<point x="226" y="-12" type="line"/>
			<point x="394" y="-12"/>
			<point x="522" y="130"/>
			<point x="642" y="313" type="curve"/>
			<point x="581" y="348" type="line"/>
			<point x="487" y="187"/>
			<point x="360" y="55"/>
			<point x="232" y="55" type="curve"/>
			<point x="166" y="55"/>
			<point x="116" y="90"/>
			<point x="116" y="152" type="curve"/>
			<point x="116" y="242"/>
			<point x="200" y="308"/>
			<point x="318" y="347" type="curve"/>
			<point x="445" y="394"/>
			<point x="557" y="441"/>
			<point x="557" y="562" type="curve"/>
			<point x="557" y="637"/>
			<point x="503" y="695"/>
			<point x="421" y="695" type="curve"/>
			<point x="311" y="695"/>
			<point x="215" y="614"/>
			<point x="215" y="498" type="curve"/>
			<point x="215" y="452"/>
			<point x="233" y="408"/>
			<point x="265" y="358" type="curve"/>
			<point x="326" y="263"/>
			<point x="383" y="179"/>
			<point x="524" y="-5" type="curve"/>
			<point x="598" y="24" type="line"/>
			<point x="466" y="196"/>
			<point x="399" y="282"/>
			<point x="331" y="383" type="curve"/>
			<point x="299" y="430"/>
			<point x="289" y="471"/>
			<point x="289" y="505" type="curve"/>
			<point x="289" y="575"/>
			<point x="347" y="628"/>
			<point x="418" y="628" type="curve"/>
			<point x="459" y="628"/>
			<point x="483" y="600"/>
			<point x="483" y="561" type="curve"/>
			<point x="483" y="471"/>
			<point x="388" y="435"/>
			<point x="275" y="398" type="curve"/>
			<point x="143" y="351"/>
			<point x="42" y="274"/>
			<point x="42" y="144" type="curve"/>
			<point x="42" y="47"/>
			<point x="118" y="-12"/>
		</contour>
	</outline>
</glyph>
<glyph name="three" format="2">
	<advance width="590"/>
	<unicode hex="0033"/>
	<outline>
		<contour>
			<point x="245" y="-12" type="curve"/>
			<point x="245" y="-12" type="line"/>
			<point x="391" y="-12"/>
			<point x="523" y="82"/>
			<point x="523" y="216" type="curve"/>
			<point x="523" y="295"/>
			<point x="463" y="337"/>
			<point x="406" y="350" type="curve"/>
			<point x="503" y="377"/>
			<point x="576" y="446"/>
			<point x="576" y="544" type="curve"/>
			<point x="576" y="637"/>
			<point x="498" y="699"/>
			<point x="379" y="699" type="curve"/>
			<point x="275" y="699"/>
			<point x="190" y="649"/>
			<point x="124" y="580" type="curve"/>
			<point x="169" y="529" type="line"/>
			<point x="229" y="588"/>
			<point x="293" y="628"/>
			<point x="372" y="628" type="curve"/>
			<point x="446" y="628"/>
			<point x="496" y="589"/>
			<point x="496" y="532" type="curve"/>
			<point x="496" y="442"/>
			<point x="404" y="382"/>
			<point x="303" y="383" type="curve"/>
			<point x="232" y="384" type="line"/>
			<point x="217" y="312" type="line"/>
			<point x="293" y="312" type="line" smooth="yes"/>
			<point x="389" y="312"/>
			<point x="446" y="282"/>
			<point x="446" y="220" type="curve"/>
			<point x="446" y="129"/>
			<point x="355" y="59"/>
			<point x="249" y="59" type="curve"/>
			<point x="168" y="59"/>
			<point x="110" y="97"/>
			<point x="77" y="155" type="curve"/>
			<point x="16" y="108" type="line"/>
			<point x="53" y="42"/>
			<point x="130" y="-12"/>
		</contour>
	</outline>
</glyph>
<glyph name="seven" format="2">
	<advance width="564"/>
	<unicode hex="0037"/>
	<outline>
		<contour>
			<point x="494" y="613" type="line"/>
			<point x="74" y="0" type="line"/>
			<point x="165" y="0" type="line"/>
			<point x="592" y="628" type="line"/>
			<point x="603" y="687" type="line"/>
			<point x="138" y="687" type="line"/>
			<point x="123" y="613" type="line"/>
		</contour>
	</outline>
</glyph>
<glyph name="equal" format="2">
	<advance width="628"/>
	<unicode hex="003D"/>
	<outline>
		<contour>
			<point x="131" y="481" type="line"/>
			<point x="115" y="407" type="line"/>
			<point x="574" y="407" type="line"/>
			<point x="590" y="481" type="line"/>
		</contour>
		<contour>
			<point x="85" y="261" type="line"/>
			<point x="69" y="187" type="line"/>
			<point x="528" y="187" type="line"/>
			<point x="544" y="261" type="line"/>
		</contour>
	</outline>
</glyph>
<glyph name="greater" format="2">
	<advance width="582"/>
	<unicode hex="003E"/>
	<outline>
		<contour>
			<point x="46" y="159" type="line"/>
			<point x="32" y="88" type="line"/>
			<point x="534" y="314" type="line"/>
			<point x="546" y="373" type="line"/>
			<point x="138" y="599" type="line"/>
			<point x="124" y="529" type="line"/>
			<point x="466" y="344" type="line"/>
		</contour>
	</outline>
</glyph>
<glyph name="at" format="2">
	<advance width="924"/>
	<unicode hex="0040"/>
	<outline>
		<contour>
			<point x="371" y="-116" type="curve"/>
			<point x="371" y="-116" type="line"/>
			<point x="453" y="-116"/>
			<point x="539" y="-92"/>
			<point x="622" y="-47" type="curve"/>
			<point x="609" y="-20" type="line"/>
			<point x="534" y="-60"/>
			<point x="456" y="-81"/>
			<point x="381" y="-81" type="curve"/>
			<point x="220" y="-81"/>
			<point x="99" y="36"/>
			<point x="99" y="193" type="curve"/>
			<point x="99" y="448"/>
			<point x="297" y="639"/>
			<point x="562" y="639" type="curve"/>
			<point x="723" y="639"/>
			<point x="843" y="527"/>
			<point x="843" y="378" type="curve"/>
			<point x="843" y="269"/>
			<point x="773" y="125"/>
			<point x="672" y="125" type="curve"/>
			<point x="638" y="125"/>
			<point x="618" y="142"/>
			<point x="618" y="173" type="curve"/>
			<point x="618" y="207"/>
			<point x="674" y="333"/>
			<point x="734" y="481" type="curve"/>
			<point x="668" y="486" type="line"/>
			<point x="641" y="420" type="line"/>
			<point x="628" y="463"/>
			<point x="592" y="501"/>
			<point x="521" y="501" type="curve"/>
			<point x="381" y="501"/>
			<point x="231" y="349"/>
			<point x="231" y="208" type="curve"/>
			<point x="231" y="128"/>
			<point x="284" y="78"/>
			<point x="366" y="78" type="curve"/>
			<point x="435" y="78"/>
			<point x="499" y="116"/>
			<point x="546" y="164" type="curve"/>
			<point x="546" y="111"/>
			<point x="581" y="78"/>
			<point x="643" y="78" type="curve"/>
			<point x="777" y="78"/>
			<point x="880" y="237"/>
			<point x="880" y="385" type="curve"/>
			<point x="880" y="551"/>
			<point x="748" y="675"/>
			<point x="572" y="675" type="curve"/>
			<point x="279" y="675"/>
			<point x="60" y="466"/>
			<point x="60" y="187" type="curve"/>
			<point x="60" y="14"/>
			<point x="193" y="-116"/>
		</contour>
		<contour>
			<point x="396" y="137" type="curve"/>
			<point x="396" y="137" type="line"/>
			<point x="339" y="137"/>
			<point x="306" y="170"/>
			<point x="306" y="223" type="curve"/>
			<point x="306" y="329"/>
			<point x="412" y="442"/>
			<point x="517" y="442" type="curve"/>
			<point x="576" y="442"/>
			<point x="605" y="413"/>
			<point x="605" y="365" type="curve"/>
			<point x="605" y="259"/>
			<point x="508" y="137"/>
		</contour>
	</outline>
</glyph>
<glyph name="M" format="2">
	<advance width="822"/>
	<unicode hex="004D"/>
	<outline>
		<contour>
			<point x="167" y="687" type="line"/>
			<point x="24" y="0" type="line"/>
			<point x="102" y="0" type="line"/>
			<point x="211" y="519" type="line"/>
			<point x="368" y="40" type="line"/>
			<point x="721" y="519" type="line"/>
			<point x="612" y="0" type="line"/>
			<point x="690" y="0" type="line"/>
			<point x="833" y="687" type="line"/>
			<point x="754" y="687" type="line"/>
			<point x="399" y="208" type="line"/>
			<point x="244" y="687" type="line"/>
		</contour>
	</outline>
</glyph>
<glyph name="asciicircum" format="2">
	<advance width="500"/>
	<unicode hex="005E"/>
	<outline>
		<contour>
			<point x="310" y="687" type="line"/>
			<point x="91" y="413" type="line"/>
			<point x="157" y="413" type="line"/>
			<point x="331" y="632" type="line"/>
			<point x="410" y="413" type="line"/>
			<point x="473" y="413" type="line"/>
			<point x="369" y="687" type="line"/>
		</contour>
	</outline>
</glyph>
<glyph name="c" format="2">
	<advance width="520"/>
	<unicode hex="0063"/>
	<anchor x="344" y="517" name="top"/>
	<anchor x="243" y="0" name="bottom"/>
	<outline>
		<contour>
			<point x="246" y="-12" type="curve"/>
			<point x="246" y="-12" type="line"/>
			<point x="322" y="-12"/>
			<point x="390" y="13"/>
			<point x="452" y="65" type="curve"/>
			<point x="407" y="120" type="line"/>
			<point x="360" y="76"/>
			<point x="311" y="55"/>
			<point x="259" y="55" type="curve"/>
			<point x="178" y="55"/>
			<point x="109" y="127"/>
			<point x="109" y="213" type="curve"/>
			<point x="109" y="348"/>
			<point x="216" y="462"/>
			<point x="344" y="462" type="curve"/>
			<point x="392" y="462"/>
			<point x="443" y="438"/>
			<point x="467" y="404" type="curve"/>
			<point x="526" y="451" type="line"/>
			<point x="487" y="497"/>
			<point x="418" y="529"/>
			<point x="358" y="529" type="curve"/>
			<point x="180" y="529"/>
			<point x="31" y="382"/>
			<point x="31" y="208" type="curve"/>
			<point x="31" y="89"/>
			<point x="129" y="-12"/>
		</contour>
	</outline>
</glyph>
<glyph name="f" format="2">
	<advance width="342"/>
	<unicode hex="0066"/>
	<outline>
		<contour>
			<point x="180" y="591" type="curve"/>
			<point x="57" y="0" type="line"/>
			<point x="132" y="0" type="line"/>
			<point x="254" y="585" type="line" smooth="yes"/>
			<point x="262" y="623"/>
			<point x="296" y="653"/>
			<point x="332" y="653" type="curve"/>
			<point x="349" y="653"/>
			<point x="368" y="646"/>
			<point x="376" y="634" type="curve"/>
			<point x="421" y="685" type="line"/>
			<point x="397" y="706"/>
			<point x="365" y="720"/>
			<point x="328" y="720" type="curve"/>
			<point x="256" y="720"/>
			<point x="196" y="668"/>
		</contour>
		<contour>
			<point x="84" y="517" type="line"/>
			<point x="70" y="450" type="line"/>
			<point x="353" y="450" type="line"/>
			<point x="367" y="517" type="line"/>
		</contour>
	</outline>
</glyph>
<glyph name="l" format="2">
	<advance width="193"/>
	<unicode hex="006C"/>
	<anchor x="187" y="699" name="top"/>
	<anchor x="73" y="0" name="bottom"/>
	<outline>
		<contour>
			<point x="150" y="699" type="line"/>
			<point x="5" y="0" type="line"/>
			<point x="80" y="0" type="line"/>
			<point x="225" y="699" type="line"/>
		</contour>
	</outline>
</glyph>
<glyph name="x" format="2">
	<advance width="544"/>
	<unicode hex="0078"/>
	<outline>
		<contour>
			<point x="92" y="517" type="line"/>
			<point x="376" y="0" type="line"/>
			<point x="461" y="0" type="line"/>
			<point x="178" y="517" type="line"/>
		</contour>
		<contour>
			<point x="473" y="517" type="line"/>
			<point x="-26" y="0" type="line"/>
			<point x="65" y="0" type="line"/>
			<point x="563" y="517" type="line"/>
		</contour>
	</outline>
</glyph>
<glyph name="braceright" format="2">
	<advance width="407"/>
	<unicode hex="007D"/>
	<outline>
		<contour>
			<point x="-28" y="-113" type="curve"/>
			<point x="-27" y="-166" type="line"/>
			<point x="131" y="-149"/>
			<point x="184" y="-103"/>
			<point x="205" y="0" type="curve"/>
			<point x="235" y="141" type="line" smooth="yes"/>
			<point x="249" y="208"/>
			<point x="285" y="238"/>
			<point x="356" y="238" type="curve"/>
			<point x="362" y="293" type="line"/>
			<point x="305" y="293"/>
			<point x="282" y="309"/>
			<point x="282" y="349" type="curve"/>
			<point x="282" y="398"/>
			<point x="320" y="519"/>
			<point x="320" y="572" type="curve"/>
			<point x="320" y="645"/>
			<point x="272" y="683"/>
			<point x="147" y="697" type="curve"/>
			<point x="135" y="644" type="line"/>
			<point x="226" y="630"/>
			<point x="256" y="614"/>
			<point x="256" y="569" type="curve"/>
			<point x="256" y="534"/>
			<point x="215" y="393"/>
			<point x="215" y="349" type="curve"/>
			<point x="215" y="307"/>
			<point x="236" y="281"/>
			<point x="270" y="268" type="curve"/>
			<point x="214" y="249"/>
			<point x="185" y="217"/>
			<point x="172" y="154" type="curve"/>
			<point x="143" y="11" type="line" smooth="yes"/>
			<point x="126" y="-70"/>
			<point x="93" y="-95"/>
		</contour>
	</outline>
</glyph>
<glyph name="yen" format="2">
	<advance width="767"/>
	<unicode hex="00A5"/>
	<anchor x="464" y="687" name="top"/>
	<outline>
		<contour>
			<point x="124" y="182" type="line"/>
			<point x="110" y="115" type="line"/>
			<point x="606" y="115" type="line"/>
			<point x="620" y="182" type="line"/>
		</contour>
		<contour>
			<point x="155" y="329" type="line"/>
			<point x="141" y="262" type="line"/>
			<point x="637" y="262" type="line"/>
			<point x="651" y="329" type="line"/>
		</contour>
		<contour>
			<point x="348" y="280" type="line"/>
			<point x="288" y="0" type="line"/>
			<point x="370" y="0" type="line"/>
			<point x="430" y="280" type="line"/>
			<point x="790" y="687" type="line"/>
			<point x="694" y="687" type="line"/>
			<point x="395" y="347" type="line"/>
			<point x="234" y="687" type="line"/>
			<point x="155" y="687" type="line"/>
		</contour>
	</outline>
</glyph>
<glyph name="multiply" format="2">
	<advance width="497"/>
	<unicode hex="00D7"/>
	<outline>
		<contour>
			<point x="48" y="198" type="line"/>
			<point x="92" y="146" type="line"/>
			<point x="481" y="470" type="line"/>
			<point x="438" y="523" type="line"/>
		</contour>
		<contour>
			<point x="104" y="470" type="line"/>
			<point x="363" y="146" type="line"/>
			<point x="425" y="199" type="line"/>
			<point x="166" y="523" type="line"/>
		</contour>
	</outline>
</glyph>
<glyph name="ae" format="2">
	<advance width="910"/>
	<unicode hex="00E6"/>
	<anchor x="706" y="517" name="top"/>
	<anchor x="600" y="-12" name="bottom"/>
	<outline>
		<contour>
			<point x="180" y="-12" type="curve"/>
			<point x="180" y="-12" type="line"/>
			<point x="272" y="-12"/>
			<point x="363" y="36"/>
			<point x="418" y="106" type="curve"/>
			<point x="450" y="33"/>
			<point x="520" y="-12"/>
			<point x="608" y="-12" type="curve"/>
			<point x="678" y="-12"/>
			<point x="781" y="17"/>
			<point x="836" y="66" type="curve"/>
			<point x="796" y="119" type="line"/>
			<point x="758" y="84"/>
			<point x="685" y="55"/>
			<point x="621" y="55" type="curve"/>
			<point x="529" y="55"/>
			<point x="473" y="116"/>
			<point x="473" y="210" type="curve"/>
			<point x="473" y="339"/>
			<point x="576" y="462"/>
			<point x="710" y="462" type="curve"/>
			<point x="777" y="462"/>
			<point x="827" y="432"/>
			<point x="827" y="382" type="curve"/>
			<point x="827" y="328"/>
			<point x="770" y="297"/>
			<point x="670" y="297" type="curve"/>
			<point x="463" y="297" type="line"/>
			<point x="449" y="230" type="line"/>
			<point x="656" y="230" type="line" smooth="yes"/>
			<point x="810" y="230"/>
			<point x="901" y="295"/>
			<point x="901" y="386" type="curve"/>
			<point x="901" y="475"/>
			<point x="813" y="529"/>
			<point x="716" y="529" type="curve"/>
			<point x="631" y="529"/>
			<point x="548" y="487"/>
			<point x="489" y="423" type="curve"/>
			<point x="471" y="488"/>
			<point x="415" y="529"/>
			<point x="319" y="529" type="curve"/>
			<point x="272" y="529"/>
			<point x="208" y="517"/>
			<point x="126" y="480" type="curve"/>
			<point x="149" y="417" type="line"/>
			<point x="200" y="441"/>
			<point x="257" y="465"/>
			<point x="312" y="465" type="curve"/>
			<point x="421" y="465"/>
			<point x="431" y="388"/>
			<point x="416" y="318" type="curve"/>
			<point x="411" y="294" type="line"/>
			<point x="361" y="312"/>
			<point x="303" y="325"/>
			<point x="244" y="325" type="curve"/>
			<point x="135" y="325"/>
			<point x="32" y="259"/>
			<point x="12" y="159" type="curve"/>
			<point x="-9" y="52"/>
			<point x="53" y="-12"/>
		</contour>
		<contour>
			<point x="196" y="54" type="curve"/>
			<point x="196" y="54" type="line"/>
			<point x="112" y="54"/>
			<point x="70" y="89"/>
			<point x="83" y="150" type="curve"/>
			<point x="97" y="215"/>
			<point x="174" y="262"/>
			<point x="253" y="262" type="curve"/>
			<point x="307" y="262"/>
			<point x="356" y="255"/>
			<point x="400" y="242" type="curve"/>
			<point x="392" y="206" type="line" smooth="yes"/>
			<point x="376" y="125"/>
			<point x="285" y="54"/>
		</contour>
	</outline>
</glyph>
<glyph name="circumflex" format="2">
	<advance width="334"/>
	<unicode hex="02C6"/>
	<anchor x="260" y="704" name="top"/>
	<anchor x="221" y="517" name="_top"/>
	<outline>
		<contour>
			<point x="226" y="713" type="line"/>
			<point x="97" y="576" type="line"/>
			<point x="156" y="576" type="line"/>
			<point x="253" y="662" type="line"/>
			<point x="313" y="576" type="line"/>
			<point x="369" y="576" type="line"/>
			<point x="296" y="713" type="line"/>
		</contour>
	</outline>
</glyph>
<glyph name="ring" format="2">
	<advance width="282"/>
	<unicode hex="02DA"/>
	<anchor x="234" y="704" name="top"/>
	<anchor x="195" y="517" name="_top"/>
	<outline>
		<contour>
			<point x="210" y="589" type="curve"/>
			<point x="210" y="589" type="line"/>
			<point x="274" y="589"/>
			<point x="336" y="647"/>
			<point x="336" y="714" type="curve"/>
			<point x="336" y="760"/>
			<point x="303" y="795"/>
			<point x="253" y="795" type="curve"/>
			<point x="189" y="795"/>
			<point x="126" y="738"/>
			<point x="126" y="672" type="curve"/>
			<point x="126" y="625"/>
			<point x="160" y="589"/>
		</contour>
		<contour>
			<point x="219" y="633" type="curve"/>
			<point x="219" y="633" type="line"/>
			<point x="191" y="633"/>
			<point x="171" y="654"/>
			<point x="171" y="681" type="curve"/>
			<point x="171" y="718"/>
			<point x="208" y="751"/>
			<point x="244" y="751" type="curve"/>
			<point x="272" y="751"/>
			<point x="291" y="731"/>
			<point x="291" y="704" type="curve"/>
			<point x="291" y="667"/>
			<point x="255" y="633"/>
		</contour>
	</outline>
</glyph>
<glyph name="endash" format="2">
	<advance width="562"/>
	<unicode hex="2013"/>
	<outline>
		<contour>
			<point x="58" y="307" type="line"/>
			<point x="44" y="236" type="line"/>
			<point x="509" y="236" type="line"/>
			<point x="523" y="307" type="line"/>
		</contour>
	</outline>
</glyph>
<glyph name="descender" format="2">
	<advance width="338"/>
	<anchor x="132" y="260" name="loop_left"/>
	<anchor x="205" y="253" name="loop_right"/>
	<outline>
		<contour>
			<point x="185" y="517" type="line"/>
			<point x="42" y="-172" type="line"/>
			<point x="117" y="-172" type="line"/>
			<point x="260" y="517" type="line"/>
		</contour>
	</outline>
</glyph>
